<?xml version="1.0" encoding="utf-8"?>
<!-- Generator: Adobe Illustrator 22.0.1, SVG Export Plug-In . SVG Version: 6.00 Build 0)  -->
<svg version="1.1" id="Layer_1" xmlns="http://www.w3.org/2000/svg" xmlns:xlink="http://www.w3.org/1999/xlink" x="0px" y="0px"
	 width="48px" height="48px" viewBox="0 0 48 48" style="enable-background:new 0 0 48 48;" xml:space="preserve">
<style type="text/css">
	.st0{fill:#505050;}
</style>
<path class="st0" d="M21.6,34.5l-3.9,3.9c-1.9,1.9-5.1,1.9-7,0s-1.9-5.1,0-7l7.8-7.8c1.8-1.8,4.6-1.9,6.6-0.4
	c0.2,0.1,0.3,0.3,0.4,0.4c0.9,0.9,2.2,0.9,3.1,0l2.4-2.4c-0.4-0.6-0.9-1.2-1.4-1.7c-0.7-0.7-1.6-1.3-2.4-1.8
	c-3.4-1.9-7.6-1.8-10.9,0.3c-0.7,0.4-1.3,0.9-1.9,1.5l-7.8,7.7c-4.2,4.2-4.2,11,0,15.3c4.2,4.2,11.1,4.2,15.3,0l7-7
	C26.4,35.8,23.9,35.5,21.6,34.5z"/>
<path class="st0" d="M42.4,6.7c-4.2-4.2-11.1-4.2-15.3,0l-7,7c2.4-0.3,4.9,0,7.2,1l3.9-3.9c1.9-1.9,5.1-1.9,7,0s1.9,5.1,0,7
	l-7.8,7.8c-1.8,1.8-4.6,1.9-6.6,0.4c-0.2-0.1-0.3-0.3-0.5-0.4c-0.9-0.8-2.2-0.8-3.1,0L18,28c0.4,0.6,0.9,1.2,1.4,1.7
	c0.7,0.7,1.6,1.3,2.4,1.8c3.4,1.9,7.6,1.8,11-0.3c0.7-0.4,1.3-0.9,1.9-1.5l7.8-7.7C46.7,17.7,46.7,10.9,42.4,6.7z"/>
</svg>
