<?xml version="1.0" encoding="utf-8"?>
<!-- Generator: Adobe Illustrator 22.0.1, SVG Export Plug-In . SVG Version: 6.00 Build 0)  -->
<svg version="1.1" id="Layer_1" xmlns="http://www.w3.org/2000/svg" xmlns:xlink="http://www.w3.org/1999/xlink" x="0px" y="0px"
	 width="20px" height="20px" viewBox="0 0 20 20" style="enable-background:new 0 0 20 20;" xml:space="preserve">
<style type="text/css">
	.st0{fill:none;stroke:#707070;stroke-miterlimit:10;}
</style>
<g>
	<path class="st0" d="M11.9,2.8C14.6,4,15.9,6,15.8,9c0,1.3,0,2.6,0.1,3.9s0.7,2.5,1.6,3.4c0.2,0.2,0.3,0.5,0.5,0.9
		c-5.4,0-10.6,0-16,0c0.1-0.4,0.2-0.7,0.4-1c1.2-1.2,1.7-2.7,1.7-4.3c0-1.2,0-2.4,0-3.5C4.1,6,5.2,4.2,7.4,3C7.7,2.9,7.9,2.6,8,2.4
		c0.2-1.3,0.9-1.8,2-1.8s1.8,0.7,1.9,2C11.9,2.6,11.9,2.7,11.9,2.8z"/>
	<path class="st0" d="M7.8,17.4c2.5,0,1.6,0,4.1,0c0,1.2-0.8,2-1.9,2.1C8.9,19.5,8.1,18.7,7.8,17.4z"/>
</g>
</svg>
