<?xml version="1.0"?>
<svg xmlns="http://www.w3.org/2000/svg" viewBox="0 0 512 512" width="512px" height="512px"><g><path stroke-width="3" d="m256 0c-140.96875 0-256 115.050781-256 256 0 140.972656 115.050781 256 256 256 140.96875 0 256-115.050781 256-256 0-140.972656-115.050781-256-256-256zm0 482c-124.617188 0-226-101.382812-226-226s101.382812-226 226-226 226 101.382812 226 226-101.382812 226-226 226zm0 0" data-original="#000000" class="active-path" data-old_color="#000000" fill="#FFFFFF"/><path d="m256 136v90l-120-90v240l120-90v90l160-120zm-90 180v-120l80 60zm120-120 80 60-80 60zm0 0" data-original="#000000" class="active-path" data-old_color="#000000" fill="#FFFFFF"/></g> </svg>
