<?xml version="1.0" encoding="utf-8"?>
<!-- Generator: Adobe Illustrator 23.0.1, SVG Export Plug-In . SVG Version: 6.00 Build 0)  -->
<svg version="1.1" id="Layer_1" xmlns="http://www.w3.org/2000/svg" xmlns:xlink="http://www.w3.org/1999/xlink" x="0px" y="0px"
	 viewBox="0 0 512 512" style="enable-background:new 0 0 512 512;" xml:space="preserve">
<style type="text/css">
	.st0{fill:#707070;}
</style>
<g>
	<path class="st0" d="M82.6,115.8v328.1c0,36.9,30.3,66.9,67.6,66.9h211.6c37.3,0,67.6-30,67.6-66.9V115.8H82.6z M400,443.9
		c0,20.7-17.1,37.6-38.2,37.6H150.2c-21.1,0-38.2-16.9-38.2-37.6V145.1h288V443.9z"/>
	<path class="st0" d="M425,26.4h-70c-0.4,0-0.7-0.1-1-0.4L336.9,9.7c-5.7-5.5-13.3-8.5-21.2-8.5H196.3c-7.9,0-15.5,3-21.2,8.5
		L158,26c-0.3,0.3-0.6,0.4-1,0.4H87c-17,0-30.8,13.8-30.8,30.8v18.1C56.2,92.2,70,106,87,106H425c17,0,30.8-13.8,30.8-30.8V57.1
		C455.8,40.2,442,26.4,425,26.4z M426.4,75.2c0,0.8-0.6,1.4-1.4,1.4H87c-0.8,0-1.4-0.6-1.4-1.4V57.1c0-0.8,0.6-1.4,1.4-1.4h70
		c7.9,0,15.5-3,21.2-8.5L195.3,31c0.3-0.2,0.6-0.4,1-0.4h119.4c0.4,0,0.7,0.1,1,0.4l17.1,16.3c5.7,5.5,13.3,8.5,21.2,8.5h70
		c0.8,0,1.4,0.6,1.4,1.4V75.2z"/>
</g>
</svg>
