<?xml version="1.0" encoding="utf-8"?>
<!-- Generator: Adobe Illustrator 24.1.0, SVG Export Plug-In . SVG Version: 6.00 Build 0)  -->
<svg version="1.1" id="left" xmlns="http://www.w3.org/2000/svg" xmlns:xlink="http://www.w3.org/1999/xlink" x="0px" y="0px"
	 viewBox="0 0 251.8 251.8" style="enable-background:new 0 0 251.8 251.8;" xml:space="preserve">
<style type="text/css">
	.st0{fill:#A5A4A4;}
	.st1{font-family:'ArialMT';}
	.st2{font-size:110px;}
</style>
<path class="st0" d="M0,124.8c1.9-2.6,3.8-5.2,7.6-3.8c3.5,1.3,3.3,4.4,3.4,7.4c2.1,54.8,38.5,98.3,92,110.1
	c62.8,13.8,126.5-29.9,136.4-93.7c9.7-62.1-28.4-118.7-90.3-131.4c-44.3-9.1-81.8,5-111.6,39c-0.5,0.7-0.9,1.4-1.2,2.1
	c1.6,0.2,2.8,0.4,4,0.4c9.8,0,19.7,0,29.5,0c3.5,0,6.5,1.2,6.6,5c0.2,4.1-2.9,5.6-6.6,5.6c-16.6,0-33.1,0-49.7,0
	c-2.6,0-3.4-1.1-3.4-3.5c0.1-16.7,0-33.5,0-50.2c0-3.5,1.6-6,5.1-6c3.8-0.1,5.5,2.5,5.5,6.1c0.1,9.8,0,19.7,0,29.5v5.8
	c1.5-1.4,2.3-2,3-2.8C65.3,6.2,108.2-8.5,158.1,4.8c50.3,13.4,81.1,47.6,91.3,98.6c13.7,68.4-34.9,136.1-104,146.4
	c-4.8,0.7-9.7,1.4-14.6,2h-9.8c-3.6-0.4-7.1-0.8-10.7-1.3c-53.9-7.1-96.6-46.8-107.4-100c-1.3-6.5-2-13.2-3-19.8V124.8z"/>
<text transform="matrix(1 0 0 1 95.3033 164.2382)" class="st0 st1 st2">5</text>
</svg>
