<?xml version="1.0" encoding="utf-8"?>
<!-- Generator: Adobe Illustrator 24.1.0, SVG Export Plug-In . SVG Version: 6.00 Build 0)  -->
<svg version="1.1" id="left" xmlns="http://www.w3.org/2000/svg" xmlns:xlink="http://www.w3.org/1999/xlink" x="0px" y="0px"
	 viewBox="0 0 251.8 251.8" style="enable-background:new 0 0 251.8 251.8;" xml:space="preserve">
<style type="text/css">
	.st0{fill:#A5A4A4;}
	.st1{font-family:'ArialMT';}
	.st2{font-size:110px;}
</style>
<path class="st0" d="M251.8,124.8c-1.9-2.6-3.8-5.2-7.6-3.8c-3.5,1.3-3.3,4.4-3.4,7.4c-2.1,54.8-38.5,98.3-91.9,110.1
	C86,252.2,22.4,208.5,12.4,144.8C2.7,82.7,40.8,26.1,102.6,13.4c44.3-9.1,81.8,5,111.6,39c0.5,0.7,0.9,1.4,1.2,2.1
	c-1.6,0.2-2.8,0.4-4.1,0.4c-9.8,0-19.7,0-29.5,0c-3.5,0-6.5,1.2-6.6,5c-0.2,4.1,2.9,5.6,6.6,5.6c16.6,0,33.1,0,49.7,0
	c2.6,0,3.4-1.1,3.4-3.5c-0.1-16.7,0-33.5,0-50.2c0-3.5-1.6-6-5.1-6c-3.8-0.1-5.5,2.5-5.5,6.1c-0.1,9.8,0,19.7,0,29.5v5.8
	c-1.5-1.4-2.3-2-3-2.8C186.5,6.2,143.6-8.5,93.6,4.8C43.3,18.2,12.6,52.4,2.3,103.4c-13.7,68.4,34.9,136.1,104,146.4
	c4.8,0.7,9.7,1.4,14.6,2h9.8c3.6-0.4,7.1-0.8,10.7-1.3c53.9-7.1,96.6-46.8,107.4-100c1.3-6.5,2-13.2,3-19.8L251.8,124.8z"/>
<text transform="matrix(1 0 0 1 95.3232 163.2381)" class="st0 st1 st2">5</text>
</svg>
